<?xml version="1.0" standalone="no"?>
<!DOCTYPE svg PUBLIC "-//W3C//DTD SVG 20010904//EN"
 "http://www.w3.org/TR/2001/REC-SVG-20010904/DTD/svg10.dtd">
<svg version="1.0" xmlns="http://www.w3.org/2000/svg"
 width="700.000000pt" height="700.000000pt" viewBox="0 0 700.000000 700.000000"
 preserveAspectRatio="xMidYMid meet">
<metadata>
Created by potrace 1.11, written by Peter Selinger 2001-2013
</metadata>
<g transform="translate(0.000000,700.000000) scale(0.100000,-0.100000)"
fill="#000000" stroke="none">
<path d="M4790 6979 c-440 -77 -829 -367 -1027 -766 -72 -145 -128 -319 -145
-451 -3 -20 -8 -17 -63 34 -204 192 -513 338 -785 371 -36 4 -324 8 -640 8
l-575 0 1 -140 c0 -130 7 -238 20 -310 21 -124 86 -312 147 -424 98 -181 271
-379 432 -492 156 -111 382 -210 540 -238 33 -6 71 -14 85 -18 14 -3 192 -8
395 -10 204 -2 384 -4 400 -6 l30 -2 0 -413 c0 -469 12 -414 -90 -427 -80 -11
-207 -43 -318 -81 -107 -37 -347 -152 -347 -166 0 -4 -4 -8 -10 -8 -8 0 -127
-77 -140 -90 -3 -3 -18 -16 -35 -29 -104 -79 -278 -260 -348 -361 -96 -139
-162 -260 -216 -392 l-38 -93 -137 -2 -137 -2 -122 -113 c-67 -62 -127 -117
-133 -123 -6 -5 -56 -51 -110 -102 -55 -50 -108 -100 -120 -110 -26 -22 -206
-187 -249 -228 -30 -29 -202 -186 -254 -233 -14 -13 -70 -65 -125 -115 -54
-51 -109 -101 -122 -111 l-24 -19 510 -511 c280 -281 575 -577 656 -658 l146
-148 196 163 c216 177 239 197 256 212 6 6 25 20 41 31 30 20 37 20 1322 18
982 -2 1294 0 1301 9 5 7 58 104 117 217 135 257 247 470 365 695 26 50 80
153 120 230 40 77 80 154 90 170 9 17 55 102 100 190 46 88 102 196 125 240
90 170 245 466 315 600 40 77 85 163 100 190 45 82 170 322 170 327 0 10 -433
-1 -500 -12 -231 -39 -460 -170 -591 -339 l-26 -33 -59 78 c-120 161 -318 341
-499 454 -68 42 -256 140 -270 140 -4 0 -21 7 -38 15 -67 31 -278 88 -367 100
-74 10 -79 11 -86 18 -3 3 -7 375 -8 826 l-1 821 370 1 c204 0 377 2 385 3 8
2 40 6 70 10 374 48 761 292 978 616 173 257 239 476 249 828 l6 182 -589 -1
c-524 -1 -601 -3 -694 -20z"/>
</g>
</svg>
